<svg xmlns="http://www.w3.org/2000/svg" width="20.095" height="19.155" viewBox="0 0 20.095 19.155">
  <g id="shopping-cart_1_" data-name="shopping-cart (1)" transform="translate(0 -10.67)">
    <g id="Group_12" data-name="Group 12" transform="translate(12.883 25.132)">
      <g id="Group_11" data-name="Group 11">
        <path id="Path_7" data-name="Path 7" d="M294.7,338.862a2.346,2.346,0,1,0,2.346,2.346A2.374,2.374,0,0,0,294.7,338.862Z" transform="translate(-292.352 -338.862)" fill="#fff"/>
      </g>
    </g>
    <g id="Group_14" data-name="Group 14" transform="translate(0 10.67)">
      <g id="Group_13" data-name="Group 13" transform="translate(0 0)">
        <path id="Path_8" data-name="Path 8" d="M19.358,13.941c-.045,0-.113-.023-.18-.023H4.964l-.226-1.512A2.02,2.02,0,0,0,2.73,10.67H.9a.9.9,0,1,0,0,1.8H2.73a.24.24,0,0,1,.226.2l1.4,9.521a2.474,2.474,0,0,0,2.437,2.1h9.386a2.507,2.507,0,0,0,2.437-1.985l1.467-7.333A.892.892,0,0,0,19.358,13.941Z" transform="translate(0 -10.67)" fill="#fff"/>
      </g>
    </g>
    <g id="Group_16" data-name="Group 16" transform="translate(4.894 25.132)">
      <g id="Group_15" data-name="Group 15">
        <path id="Path_9" data-name="Path 9" d="M115.652,341.1a2.333,2.333,0,0,0-2.324-2.234,2.36,2.36,0,0,0-2.256,2.437,2.313,2.313,0,0,0,2.3,2.234h.045A2.341,2.341,0,0,0,115.652,341.1Z" transform="translate(-111.07 -338.862)" fill="#fff"/>
      </g>
    </g>
  </g>
</svg>
